<svg xmlns="http://www.w3.org/2000/svg" width="500" height="400" viewBox="0 0 500 400">
  <!-- Background -->
  <rect width="500" height="400" fill="none"/>
  
  <!-- Developer working illustration -->
  <g transform="translate(50, 20)">
    <!-- Desk -->
    <rect x="20" y="250" width="360" height="20" rx="5" fill="#112240" stroke="#64ffda" stroke-width="1"/>
    <rect x="40" y="270" width="15" height="80" fill="#112240"/>
    <rect x="345" y="270" width="15" height="80" fill="#112240"/>
    
    <!-- Computer setup -->
    <g>
      <!-- Monitor -->
      <rect x="100" y="120" width="200" height="130" rx="5" fill="#112240" stroke="#64ffda" stroke-width="2"/>
      <rect x="110" y="130" width="180" height="110" rx="3" fill="#0a192f"/>
      
      <!-- Monitor stand -->
      <rect x="190" y="250" width="20" height="20" fill="#112240"/>
      <rect x="180" y="240" width="40" height="10" rx="2" fill="#112240"/>
      
      <!-- Code on screen -->
      <g fill="#64ffda" font-family="monospace" font-size="7">
        <text x="120" y="145">import React from 'react';</text>
        <text x="120" y="160">const Portfolio = () => {</text>
        <text x="130" y="175">  return (</text>
        <text x="140" y="190">    &lt;div className="portfolio"&gt;</text>
        <text x="150" y="205">      &lt;h1&gt;My Projects&lt;/h1&gt;</text>
        <text x="150" y="220">      &lt;ProjectList /&gt;</text>
        <text x="140" y="235">    &lt;/div&gt;</text>
        <text x="130" y="250">  );</text>
        <text x="120" y="265">};</text>
      </g>
      
      <!-- Keyboard -->
      <rect x="140" y="260" width="120" height="10" rx="3" fill="#112240" stroke="#64ffda" stroke-width="1"/>
      
      <!-- Coffee mug -->
      <g transform="translate(320, 230)">
        <path d="M0,0 L0,30 A10,5 0 0,0 20,30 L20,0 Z" fill="#112240" stroke="#64ffda" stroke-width="1"/>
        <path d="M20,5 Q30,5 30,15 Q30,25 20,25" fill="none" stroke="#64ffda" stroke-width="1"/>
        <path d="M5,0 Q10,-5 15,0" fill="none" stroke="#64ffda" stroke-width="1"/>
        <rect x="5" y="5" width="10" height="10" fill="#7b5cff" opacity="0.7"/>
      </g>
      
      <!-- Plant -->
      <g transform="translate(50, 220)">
        <rect x="0" y="10" width="20" height="20" rx="2" fill="#112240" stroke="#64ffda" stroke-width="1"/>
        <path d="M10,10 L10,-10 M10,0 L0,-5 M10,0 L20,-5 M10,-5 L5,-15 M10,-5 L15,-15" stroke="#64ffda" stroke-width="1"/>
        <circle cx="5" cy="-15" r="3" fill="#64ffda"/>
        <circle cx="15" cy="-15" r="3" fill="#64ffda"/>
        <circle cx="0" cy="-5" r="2" fill="#64ffda"/>
        <circle cx="20" cy="-5" r="2" fill="#64ffda"/>
      </g>
    </g>
    
    <!-- Person -->
    <g transform="translate(200, 180)">
      <!-- Head -->
      <circle cx="0" cy="0" r="25" fill="#8892b0"/>
      
      <!-- Face -->
      <circle cx="-8" cy="-5" r="3" fill="#0a192f"/>
      <circle cx="8" cy="-5" r="3" fill="#0a192f"/>
      <path d="M-5,8 Q0,13 5,8" stroke="#0a192f" stroke-width="1.5" fill="none"/>
      
      <!-- Hair -->
      <path d="M-25,-5 Q-20,-30 0,-30 Q20,-30 25,-5 Q20,-15 0,-20 Q-20,-15 -25,-5" fill="#0a192f"/>
      
      <!-- Glasses -->
      <rect x="-15" y="-8" width="30" height="6" rx="3" fill="none" stroke="#64ffda" stroke-width="1"/>
      <rect x="-15" y="-8" width="7" height="6" rx="3" fill="none" stroke="#64ffda" stroke-width="1"/>
      <rect x="8" y="-8" width="7" height="6" rx="3" fill="none" stroke="#64ffda" stroke-width="1"/>
      
      <!-- Body -->
      <path d="M-15,25 L-20,70 L20,70 L15,25" fill="#64ffda"/>
      
      <!-- Arms -->
      <path d="M-20,30 L-50,60" stroke="#64ffda" stroke-width="8" stroke-linecap="round"/>
      <path d="M-50,60 L-40,70" stroke="#64ffda" stroke-width="8" stroke-linecap="round"/>
      
      <path d="M20,30 L50,60" stroke="#64ffda" stroke-width="8" stroke-linecap="round"/>
      <path d="M50,60 L40,70" stroke="#64ffda" stroke-width="8" stroke-linecap="round"/>
    </g>
    
    <!-- Decorative elements -->
    <g>
      <!-- Floating code symbols -->
      <g fill="#64ffda" font-family="monospace" font-weight="bold">
        <text x="30" y="50" font-size="20" opacity="0.7">{}</text>
        <text x="330" y="70" font-size="24" opacity="0.7">;</text>
        <text x="350" y="150" font-size="20" opacity="0.7">()</text>
        <text x="40" y="150" font-size="24" opacity="0.7">[]</text>
        <text x="300" y="100" font-size="20" opacity="0.7">&lt;/&gt;</text>
      </g>
      
      <!-- Decorative circles -->
      <g fill="#7b5cff">
        <circle cx="50" cy="100" r="10" opacity="0.5"/>
        <circle cx="350" y="200" r="15" opacity="0.5"/>
        <circle cx="320" y="50" r="8" opacity="0.5"/>
        <circle cx="80" y="200" r="12" opacity="0.5"/>
      </g>
    </g>
  </g>
</svg>